<svg width="86" height="118" viewBox="0 0 86 118" fill="none" xmlns="http://www.w3.org/2000/svg">
<path opacity="0.0950281" fill-rule="evenodd" clip-rule="evenodd" d="M6 3C6 4.65685 4.65685 6 3 6C1.34315 6 0 4.65685 0 3C0 1.34315 1.34315 0 3 0C4.65685 0 6 1.34315 6 3ZM3 22C4.65685 22 6 20.6569 6 19C6 17.3431 4.65685 16 3 16C1.34315 16 0 17.3431 0 19C0 20.6569 1.34315 22 3 22ZM19 22C20.6569 22 22 20.6569 22 19C22 17.3431 20.6569 16 19 16C17.3431 16 16 17.3431 16 19C16 20.6569 17.3431 22 19 22ZM38 19C38 20.6569 36.6569 22 35 22C33.3431 22 32 20.6569 32 19C32 17.3431 33.3431 16 35 16C36.6569 16 38 17.3431 38 19ZM51 22C52.6569 22 54 20.6569 54 19C54 17.3431 52.6569 16 51 16C49.3431 16 48 17.3431 48 19C48 20.6569 49.3431 22 51 22ZM70 19C70 20.6569 68.6569 22 67 22C65.3431 22 64 20.6569 64 19C64 17.3431 65.3431 16 67 16C68.6569 16 70 17.3431 70 19ZM83 22C84.6569 22 86 20.6569 86 19C86 17.3431 84.6569 16 83 16C81.3431 16 80 17.3431 80 19C80 20.6569 81.3431 22 83 22ZM6 35C6 36.6569 4.65685 38 3 38C1.34315 38 0 36.6569 0 35C0 33.3431 1.34315 32 3 32C4.65685 32 6 33.3431 6 35ZM22 35C22 36.6569 20.6569 38 19 38C17.3431 38 16 36.6569 16 35C16 33.3431 17.3431 32 19 32C20.6569 32 22 33.3431 22 35ZM35 38C36.6569 38 38 36.6569 38 35C38 33.3431 36.6569 32 35 32C33.3431 32 32 33.3431 32 35C32 36.6569 33.3431 38 35 38ZM54 35C54 36.6569 52.6569 38 51 38C49.3431 38 48 36.6569 48 35C48 33.3431 49.3431 32 51 32C52.6569 32 54 33.3431 54 35ZM67 38C68.6569 38 70 36.6569 70 35C70 33.3431 68.6569 32 67 32C65.3431 32 64 33.3431 64 35C64 36.6569 65.3431 38 67 38ZM86 35C86 36.6569 84.6569 38 83 38C81.3431 38 80 36.6569 80 35C80 33.3431 81.3431 32 83 32C84.6569 32 86 33.3431 86 35ZM22 3C22 4.65685 20.6569 6 19 6C17.3431 6 16 4.65685 16 3C16 1.34315 17.3431 0 19 0C20.6569 0 22 1.34315 22 3ZM6 51C6 52.6569 4.65685 54 3 54C1.34315 54 0 52.6569 0 51C0 49.3431 1.34315 48 3 48C4.65685 48 6 49.3431 6 51ZM22 51C22 52.6569 20.6569 54 19 54C17.3431 54 16 52.6569 16 51C16 49.3431 17.3431 48 19 48C20.6569 48 22 49.3431 22 51ZM35 54C36.6569 54 38 52.6569 38 51C38 49.3431 36.6569 48 35 48C33.3431 48 32 49.3431 32 51C32 52.6569 33.3431 54 35 54ZM54 51C54 52.6569 52.6569 54 51 54C49.3431 54 48 52.6569 48 51C48 49.3431 49.3431 48 51 48C52.6569 48 54 49.3431 54 51ZM67 54C68.6569 54 70 52.6569 70 51C70 49.3431 68.6569 48 67 48C65.3431 48 64 49.3431 64 51C64 52.6569 65.3431 54 67 54ZM86 51C86 52.6569 84.6569 54 83 54C81.3431 54 80 52.6569 80 51C80 49.3431 81.3431 48 83 48C84.6569 48 86 49.3431 86 51ZM38 3C38 4.65685 36.6569 6 35 6C33.3431 6 32 4.65685 32 3C32 1.34315 33.3431 0 35 0C36.6569 0 38 1.34315 38 3ZM6 67C6 68.6569 4.65685 70 3 70C1.34315 70 0 68.6569 0 67C0 65.3431 1.34315 64 3 64C4.65685 64 6 65.3431 6 67ZM22 67C22 68.6569 20.6569 70 19 70C17.3431 70 16 68.6569 16 67C16 65.3431 17.3431 64 19 64C20.6569 64 22 65.3431 22 67ZM35 70C36.6569 70 38 68.6569 38 67C38 65.3431 36.6569 64 35 64C33.3431 64 32 65.3431 32 67C32 68.6569 33.3431 70 35 70ZM54 67C54 68.6569 52.6569 70 51 70C49.3431 70 48 68.6569 48 67C48 65.3431 49.3431 64 51 64C52.6569 64 54 65.3431 54 67ZM67 70C68.6569 70 70 68.6569 70 67C70 65.3431 68.6569 64 67 64C65.3431 64 64 65.3431 64 67C64 68.6569 65.3431 70 67 70ZM86 67C86 68.6569 84.6569 70 83 70C81.3431 70 80 68.6569 80 67C80 65.3431 81.3431 64 83 64C84.6569 64 86 65.3431 86 67ZM54 3C54 4.65685 52.6569 6 51 6C49.3431 6 48 4.65685 48 3C48 1.34315 49.3431 0 51 0C52.6569 0 54 1.34315 54 3ZM6 83C6 84.6569 4.65685 86 3 86C1.34315 86 0 84.6569 0 83C0 81.3431 1.34315 80 3 80C4.65685 80 6 81.3431 6 83ZM22 83C22 84.6569 20.6569 86 19 86C17.3431 86 16 84.6569 16 83C16 81.3431 17.3431 80 19 80C20.6569 80 22 81.3431 22 83ZM35 86C36.6569 86 38 84.6569 38 83C38 81.3431 36.6569 80 35 80C33.3431 80 32 81.3431 32 83C32 84.6569 33.3431 86 35 86ZM54 83C54 84.6569 52.6569 86 51 86C49.3431 86 48 84.6569 48 83C48 81.3431 49.3431 80 51 80C52.6569 80 54 81.3431 54 83ZM67 86C68.6569 86 70 84.6569 70 83C70 81.3431 68.6569 80 67 80C65.3431 80 64 81.3431 64 83C64 84.6569 65.3431 86 67 86ZM86 83C86 84.6569 84.6569 86 83 86C81.3431 86 80 84.6569 80 83C80 81.3431 81.3431 80 83 80C84.6569 80 86 81.3431 86 83ZM70 3C70 4.65685 68.6569 6 67 6C65.3431 6 64 4.65685 64 3C64 1.34315 65.3431 0 67 0C68.6569 0 70 1.34315 70 3ZM6 99C6 100.657 4.65685 102 3 102C1.34315 102 0 100.657 0 99C0 97.3431 1.34315 96 3 96C4.65685 96 6 97.3431 6 99ZM22 99C22 100.657 20.6569 102 19 102C17.3431 102 16 100.657 16 99C16 97.3431 17.3431 96 19 96C20.6569 96 22 97.3431 22 99ZM35 102C36.6569 102 38 100.657 38 99C38 97.3431 36.6569 96 35 96C33.3431 96 32 97.3431 32 99C32 100.657 33.3431 102 35 102ZM54 99C54 100.657 52.6569 102 51 102C49.3431 102 48 100.657 48 99C48 97.3431 49.3431 96 51 96C52.6569 96 54 97.3431 54 99ZM67 102C68.6569 102 70 100.657 70 99C70 97.3431 68.6569 96 67 96C65.3431 96 64 97.3431 64 99C64 100.657 65.3431 102 67 102ZM86 99C86 100.657 84.6569 102 83 102C81.3431 102 80 100.657 80 99C80 97.3431 81.3431 96 83 96C84.6569 96 86 97.3431 86 99ZM86 3C86 4.65685 84.6569 6 83 6C81.3431 6 80 4.65685 80 3C80 1.34315 81.3431 0 83 0C84.6569 0 86 1.34315 86 3ZM6 115C6 116.657 4.65685 118 3 118C1.34315 118 0 116.657 0 115C0 113.343 1.34315 112 3 112C4.65685 112 6 113.343 6 115ZM22 115C22 116.657 20.6569 118 19 118C17.3431 118 16 116.657 16 115C16 113.343 17.3431 112 19 112C20.6569 112 22 113.343 22 115ZM35 118C36.6569 118 38 116.657 38 115C38 113.343 36.6569 112 35 112C33.3431 112 32 113.343 32 115C32 116.657 33.3431 118 35 118ZM54 115C54 116.657 52.6569 118 51 118C49.3431 118 48 116.657 48 115C48 113.343 49.3431 112 51 112C52.6569 112 54 113.343 54 115ZM67 118C68.6569 118 70 116.657 70 115C70 113.343 68.6569 112 67 112C65.3431 112 64 113.343 64 115C64 116.657 65.3431 118 67 118ZM86 115C86 116.657 84.6569 118 83 118C81.3431 118 80 116.657 80 115C80 113.343 81.3431 112 83 112C84.6569 112 86 113.343 86 115Z" fill="black"/>
</svg>
