<svg width="70" height="70" viewBox="0 0 70 70" fill="none" xmlns="http://www.w3.org/2000/svg">
<path opacity="0.268768" fill-rule="evenodd" clip-rule="evenodd" d="M7.77778 4C7.77778 6.20914 6.03666 8 3.88889 8C1.74111 8 0 6.20914 0 4C0 1.79086 1.74111 0 3.88889 0C6.03666 0 7.77778 1.79086 7.77778 4ZM3.88889 29C6.03666 29 7.77778 27.2091 7.77778 25C7.77778 22.7909 6.03666 21 3.88889 21C1.74111 21 0 22.7909 0 25C0 27.2091 1.74111 29 3.88889 29ZM24.6296 29C26.7774 29 28.5185 27.2091 28.5185 25C28.5185 22.7909 26.7774 21 24.6296 21C22.4819 21 20.7407 22.7909 20.7407 25C20.7407 27.2091 22.4819 29 24.6296 29ZM49.2593 25C49.2593 27.2091 47.5181 29 45.3704 29C43.2226 29 41.4815 27.2091 41.4815 25C41.4815 22.7909 43.2226 21 45.3704 21C47.5181 21 49.2593 22.7909 49.2593 25ZM66.1111 29C68.2589 29 70 27.2091 70 25C70 22.7909 68.2589 21 66.1111 21C63.9633 21 62.2222 22.7909 62.2222 25C62.2222 27.2091 63.9633 29 66.1111 29ZM7.77778 45C7.77778 47.2091 6.03666 49 3.88889 49C1.74111 49 0 47.2091 0 45C0 42.7909 1.74111 41 3.88889 41C6.03666 41 7.77778 42.7909 7.77778 45ZM28.5185 45C28.5185 47.2091 26.7774 49 24.6296 49C22.4819 49 20.7407 47.2091 20.7407 45C20.7407 42.7909 22.4819 41 24.6296 41C26.7774 41 28.5185 42.7909 28.5185 45ZM45.3704 49C47.5181 49 49.2593 47.2091 49.2593 45C49.2593 42.7909 47.5181 41 45.3704 41C43.2226 41 41.4815 42.7909 41.4815 45C41.4815 47.2091 43.2226 49 45.3704 49ZM70 45C70 47.2091 68.2589 49 66.1111 49C63.9633 49 62.2222 47.2091 62.2222 45C62.2222 42.7909 63.9633 41 66.1111 41C68.2589 41 70 42.7909 70 45ZM28.5185 4C28.5185 6.20914 26.7774 8 24.6296 8C22.4819 8 20.7407 6.20914 20.7407 4C20.7407 1.79086 22.4819 0 24.6296 0C26.7774 0 28.5185 1.79086 28.5185 4ZM7.77778 66C7.77778 68.2091 6.03666 70 3.88889 70C1.74111 70 0 68.2091 0 66C0 63.7909 1.74111 62 3.88889 62C6.03666 62 7.77778 63.7909 7.77778 66ZM28.5185 66C28.5185 68.2091 26.7774 70 24.6296 70C22.4819 70 20.7407 68.2091 20.7407 66C20.7407 63.7909 22.4819 62 24.6296 62C26.7774 62 28.5185 63.7909 28.5185 66ZM45.3704 70C47.5181 70 49.2593 68.2091 49.2593 66C49.2593 63.7909 47.5181 62 45.3704 62C43.2226 62 41.4815 63.7909 41.4815 66C41.4815 68.2091 43.2226 70 45.3704 70ZM70 66C70 68.2091 68.2589 70 66.1111 70C63.9633 70 62.2222 68.2091 62.2222 66C62.2222 63.7909 63.9633 62 66.1111 62C68.2589 62 70 63.7909 70 66ZM49.2593 4C49.2593 6.20914 47.5181 8 45.3704 8C43.2226 8 41.4815 6.20914 41.4815 4C41.4815 1.79086 43.2226 0 45.3704 0C47.5181 0 49.2593 1.79086 49.2593 4ZM66.1111 8C68.2589 8 70 6.20914 70 4C70 1.79086 68.2589 0 66.1111 0C63.9633 0 62.2222 1.79086 62.2222 4C62.2222 6.20914 63.9633 8 66.1111 8Z" fill="#235049"/>
</svg>
