<svg width="41" height="40" viewBox="0 0 41 40" fill="none" xmlns="http://www.w3.org/2000/svg">
<ellipse cx="20.014" cy="20" rx="20.014" ry="20" fill="#D8A83A"/>
<mask id="mask0_0_1680" style="mask-type:alpha" maskUnits="userSpaceOnUse" x="0" y="0" width="41" height="40">
<ellipse cx="20.014" cy="20" rx="20.014" ry="20" fill="white"/>
</mask>
<g mask="url(#mask0_0_1680)">
<path d="M21.0196 25.7721L21.2102 31.7659C14.0399 32.0386 8.04262 26.446 7.81439 19.2741L13.8067 19.046C13.9297 22.9076 17.1588 25.9188 21.0196 25.7721Z" fill="url(#paint0_linear_0_1680)"/>
<path d="M21.2114 31.7648L21.1165 29.3305L21.0195 25.7723C23.8473 25.6648 26.3426 23.864 27.3418 21.2097C28.341 18.5554 27.6473 15.5704 25.5843 13.6465C23.5212 11.7226 20.495 11.2389 17.9168 12.4208C15.3387 13.6027 13.7164 16.2176 13.8064 19.046L14.2506 33.0311C14.3556 36.3412 11.7581 39.1266 8.44876 39.2528L7.81408 19.2741C7.61691 14.6042 9.94298 10.1724 13.9054 7.66865C17.8678 5.16485 22.8558 4.97493 26.9676 7.17132C31.0793 9.3677 33.681 13.6118 33.7806 18.2855C34.0096 25.4562 28.3817 31.4914 21.2114 31.7648Z" fill="url(#paint1_linear_0_1680)"/>
<path d="M24.8511 24.4562C27.5726 22.5029 28.5464 18.9061 27.1763 15.8679C25.8063 12.8298 22.4746 11.1977 19.221 11.971C15.9674 12.7443 13.6996 15.7072 13.8059 19.0457L14.2506 33.0312C14.3556 36.3413 11.7581 39.1267 8.44874 39.2529L7.81406 19.2743C7.58661 12.1024 13.2145 6.06719 20.3848 5.7938C20.4969 5.78953 20.6086 5.78668 20.7198 5.78526C30.2712 5.66386 34.0472 18.1025 26.1651 23.5494L24.8511 24.4562Z" fill="white"/>
</g>
<defs>
<linearGradient id="paint0_linear_0_1680" x1="7.71114" y1="24.9877" x2="17.2856" y2="8.29546" gradientUnits="userSpaceOnUse">
<stop stop-color="white"/>
<stop offset="1" stop-color="#EADBBA"/>
</linearGradient>
<linearGradient id="paint1_linear_0_1680" x1="-2.3836" y1="37.5281" x2="11.3798" y2="-18.863" gradientUnits="userSpaceOnUse">
<stop stop-color="white"/>
<stop offset="1" stop-color="#E5C17C"/>
</linearGradient>
</defs>
</svg>
