<svg width="163" height="224" viewBox="0 0 163 224" fill="none" xmlns="http://www.w3.org/2000/svg">
<path opacity="0.0860719" fill-rule="evenodd" clip-rule="evenodd" d="M11.3721 5.5C11.3721 8.53757 8.82636 11 5.68605 11C2.54573 11 0 8.53757 0 5.5C0 2.46243 2.54573 0 5.68605 0C8.82636 0 11.3721 2.46243 11.3721 5.5ZM5.68605 42C8.82636 42 11.3721 39.5376 11.3721 36.5C11.3721 33.4624 8.82636 31 5.68605 31C2.54573 31 0 33.4624 0 36.5C0 39.5376 2.54573 42 5.68605 42ZM36.0116 42C39.1519 42 41.6977 39.5376 41.6977 36.5C41.6977 33.4624 39.1519 31 36.0116 31C32.8713 31 30.3256 33.4624 30.3256 36.5C30.3256 39.5376 32.8713 42 36.0116 42ZM72.0233 36.5C72.0233 39.5376 69.4775 42 66.3372 42C63.1969 42 60.6512 39.5376 60.6512 36.5C60.6512 33.4624 63.1969 31 66.3372 31C69.4775 31 72.0233 33.4624 72.0233 36.5ZM96.6628 42C99.8031 42 102.349 39.5376 102.349 36.5C102.349 33.4624 99.8031 31 96.6628 31C93.5225 31 90.9767 33.4624 90.9767 36.5C90.9767 39.5376 93.5225 42 96.6628 42ZM132.674 36.5C132.674 39.5376 130.129 42 126.988 42C123.848 42 121.302 39.5376 121.302 36.5C121.302 33.4624 123.848 31 126.988 31C130.129 31 132.674 33.4624 132.674 36.5ZM157.314 42C160.454 42 163 39.5376 163 36.5C163 33.4624 160.454 31 157.314 31C154.174 31 151.628 33.4624 151.628 36.5C151.628 39.5376 154.174 42 157.314 42ZM11.3721 66.5C11.3721 69.5376 8.82636 72 5.68605 72C2.54573 72 0 69.5376 0 66.5C0 63.4624 2.54573 61 5.68605 61C8.82636 61 11.3721 63.4624 11.3721 66.5ZM41.6977 66.5C41.6977 69.5376 39.1519 72 36.0116 72C32.8713 72 30.3256 69.5376 30.3256 66.5C30.3256 63.4624 32.8713 61 36.0116 61C39.1519 61 41.6977 63.4624 41.6977 66.5ZM66.3372 72C69.4775 72 72.0233 69.5376 72.0233 66.5C72.0233 63.4624 69.4775 61 66.3372 61C63.1969 61 60.6512 63.4624 60.6512 66.5C60.6512 69.5376 63.1969 72 66.3372 72ZM102.349 66.5C102.349 69.5376 99.8031 72 96.6628 72C93.5225 72 90.9767 69.5376 90.9767 66.5C90.9767 63.4624 93.5225 61 96.6628 61C99.8031 61 102.349 63.4624 102.349 66.5ZM126.988 72C130.129 72 132.674 69.5376 132.674 66.5C132.674 63.4624 130.129 61 126.988 61C123.848 61 121.302 63.4624 121.302 66.5C121.302 69.5376 123.848 72 126.988 72ZM163 66.5C163 69.5376 160.454 72 157.314 72C154.174 72 151.628 69.5376 151.628 66.5C151.628 63.4624 154.174 61 157.314 61C160.454 61 163 63.4624 163 66.5ZM41.6977 5.5C41.6977 8.53757 39.1519 11 36.0116 11C32.8713 11 30.3256 8.53757 30.3256 5.5C30.3256 2.46243 32.8713 0 36.0116 0C39.1519 0 41.6977 2.46243 41.6977 5.5ZM11.3721 96.5C11.3721 99.5376 8.82636 102 5.68605 102C2.54573 102 0 99.5376 0 96.5C0 93.4624 2.54573 91 5.68605 91C8.82636 91 11.3721 93.4624 11.3721 96.5ZM41.6977 96.5C41.6977 99.5376 39.1519 102 36.0116 102C32.8713 102 30.3256 99.5376 30.3256 96.5C30.3256 93.4624 32.8713 91 36.0116 91C39.1519 91 41.6977 93.4624 41.6977 96.5ZM66.3372 102C69.4775 102 72.0233 99.5376 72.0233 96.5C72.0233 93.4624 69.4775 91 66.3372 91C63.1969 91 60.6512 93.4624 60.6512 96.5C60.6512 99.5376 63.1969 102 66.3372 102ZM102.349 96.5C102.349 99.5376 99.8031 102 96.6628 102C93.5225 102 90.9767 99.5376 90.9767 96.5C90.9767 93.4624 93.5225 91 96.6628 91C99.8031 91 102.349 93.4624 102.349 96.5ZM126.988 102C130.129 102 132.674 99.5376 132.674 96.5C132.674 93.4624 130.129 91 126.988 91C123.848 91 121.302 93.4624 121.302 96.5C121.302 99.5376 123.848 102 126.988 102ZM163 96.5C163 99.5376 160.454 102 157.314 102C154.174 102 151.628 99.5376 151.628 96.5C151.628 93.4624 154.174 91 157.314 91C160.454 91 163 93.4624 163 96.5ZM72.0233 5.5C72.0233 8.53757 69.4775 11 66.3372 11C63.1969 11 60.6512 8.53757 60.6512 5.5C60.6512 2.46243 63.1969 0 66.3372 0C69.4775 0 72.0233 2.46243 72.0233 5.5ZM11.3721 127.5C11.3721 130.538 8.82636 133 5.68605 133C2.54573 133 0 130.538 0 127.5C0 124.462 2.54573 122 5.68605 122C8.82636 122 11.3721 124.462 11.3721 127.5ZM41.6977 127.5C41.6977 130.538 39.1519 133 36.0116 133C32.8713 133 30.3256 130.538 30.3256 127.5C30.3256 124.462 32.8713 122 36.0116 122C39.1519 122 41.6977 124.462 41.6977 127.5ZM66.3372 133C69.4775 133 72.0233 130.538 72.0233 127.5C72.0233 124.462 69.4775 122 66.3372 122C63.1969 122 60.6512 124.462 60.6512 127.5C60.6512 130.538 63.1969 133 66.3372 133ZM102.349 127.5C102.349 130.538 99.8031 133 96.6628 133C93.5225 133 90.9767 130.538 90.9767 127.5C90.9767 124.462 93.5225 122 96.6628 122C99.8031 122 102.349 124.462 102.349 127.5ZM126.988 133C130.129 133 132.674 130.538 132.674 127.5C132.674 124.462 130.129 122 126.988 122C123.848 122 121.302 124.462 121.302 127.5C121.302 130.538 123.848 133 126.988 133ZM163 127.5C163 130.538 160.454 133 157.314 133C154.174 133 151.628 130.538 151.628 127.5C151.628 124.462 154.174 122 157.314 122C160.454 122 163 124.462 163 127.5ZM102.349 5.5C102.349 8.53757 99.8031 11 96.6628 11C93.5225 11 90.9767 8.53757 90.9767 5.5C90.9767 2.46243 93.5225 0 96.6628 0C99.8031 0 102.349 2.46243 102.349 5.5ZM11.3721 157.5C11.3721 160.538 8.82636 163 5.68605 163C2.54573 163 0 160.538 0 157.5C0 154.462 2.54573 152 5.68605 152C8.82636 152 11.3721 154.462 11.3721 157.5ZM41.6977 157.5C41.6977 160.538 39.1519 163 36.0116 163C32.8713 163 30.3256 160.538 30.3256 157.5C30.3256 154.462 32.8713 152 36.0116 152C39.1519 152 41.6977 154.462 41.6977 157.5ZM66.3372 163C69.4775 163 72.0233 160.538 72.0233 157.5C72.0233 154.462 69.4775 152 66.3372 152C63.1969 152 60.6512 154.462 60.6512 157.5C60.6512 160.538 63.1969 163 66.3372 163ZM102.349 157.5C102.349 160.538 99.8031 163 96.6628 163C93.5225 163 90.9767 160.538 90.9767 157.5C90.9767 154.462 93.5225 152 96.6628 152C99.8031 152 102.349 154.462 102.349 157.5ZM126.988 163C130.129 163 132.674 160.538 132.674 157.5C132.674 154.462 130.129 152 126.988 152C123.848 152 121.302 154.462 121.302 157.5C121.302 160.538 123.848 163 126.988 163ZM163 157.5C163 160.538 160.454 163 157.314 163C154.174 163 151.628 160.538 151.628 157.5C151.628 154.462 154.174 152 157.314 152C160.454 152 163 154.462 163 157.5ZM132.674 5.5C132.674 8.53757 130.129 11 126.988 11C123.848 11 121.302 8.53757 121.302 5.5C121.302 2.46243 123.848 0 126.988 0C130.129 0 132.674 2.46243 132.674 5.5ZM11.3721 187.5C11.3721 190.538 8.82636 193 5.68605 193C2.54573 193 0 190.538 0 187.5C0 184.462 2.54573 182 5.68605 182C8.82636 182 11.3721 184.462 11.3721 187.5ZM41.6977 187.5C41.6977 190.538 39.1519 193 36.0116 193C32.8713 193 30.3256 190.538 30.3256 187.5C30.3256 184.462 32.8713 182 36.0116 182C39.1519 182 41.6977 184.462 41.6977 187.5ZM66.3372 193C69.4775 193 72.0233 190.538 72.0233 187.5C72.0233 184.462 69.4775 182 66.3372 182C63.1969 182 60.6512 184.462 60.6512 187.5C60.6512 190.538 63.1969 193 66.3372 193ZM102.349 187.5C102.349 190.538 99.8031 193 96.6628 193C93.5225 193 90.9767 190.538 90.9767 187.5C90.9767 184.462 93.5225 182 96.6628 182C99.8031 182 102.349 184.462 102.349 187.5ZM126.988 193C130.129 193 132.674 190.538 132.674 187.5C132.674 184.462 130.129 182 126.988 182C123.848 182 121.302 184.462 121.302 187.5C121.302 190.538 123.848 193 126.988 193ZM163 187.5C163 190.538 160.454 193 157.314 193C154.174 193 151.628 190.538 151.628 187.5C151.628 184.462 154.174 182 157.314 182C160.454 182 163 184.462 163 187.5ZM163 5.5C163 8.53757 160.454 11 157.314 11C154.174 11 151.628 8.53757 151.628 5.5C151.628 2.46243 154.174 0 157.314 0C160.454 0 163 2.46243 163 5.5ZM11.3721 218.5C11.3721 221.538 8.82636 224 5.68605 224C2.54573 224 0 221.538 0 218.5C0 215.462 2.54573 213 5.68605 213C8.82636 213 11.3721 215.462 11.3721 218.5ZM41.6977 218.5C41.6977 221.538 39.1519 224 36.0116 224C32.8713 224 30.3256 221.538 30.3256 218.5C30.3256 215.462 32.8713 213 36.0116 213C39.1519 213 41.6977 215.462 41.6977 218.5ZM66.3372 224C69.4775 224 72.0233 221.538 72.0233 218.5C72.0233 215.462 69.4775 213 66.3372 213C63.1969 213 60.6512 215.462 60.6512 218.5C60.6512 221.538 63.1969 224 66.3372 224ZM102.349 218.5C102.349 221.538 99.8031 224 96.6628 224C93.5225 224 90.9767 221.538 90.9767 218.5C90.9767 215.462 93.5225 213 96.6628 213C99.8031 213 102.349 215.462 102.349 218.5ZM126.988 224C130.129 224 132.674 221.538 132.674 218.5C132.674 215.462 130.129 213 126.988 213C123.848 213 121.302 215.462 121.302 218.5C121.302 221.538 123.848 224 126.988 224ZM163 218.5C163 221.538 160.454 224 157.314 224C154.174 224 151.628 221.538 151.628 218.5C151.628 215.462 154.174 213 157.314 213C160.454 213 163 215.462 163 218.5Z" fill="white"/>
</svg>
